<svg width="18" height="18" viewBox="0 0 18 18" fill="none" xmlns="http://www.w3.org/2000/svg">
<path d="M15.3029 8.99977C16.0439 7.99209 16.6822 6.91274 17.2083 5.77788C18.2366 3.49144 18.2615 1.69331 17.2849 0.714773C16.3082 -0.263763 14.5082 -0.236953 12.2217 0.791371C11.0869 1.31738 10.0075 1.95569 8.99982 2.69674C7.99213 1.95569 6.91277 1.31738 5.77791 0.791371C3.49146 -0.236953 1.69332 -0.261848 0.714777 0.714773C-0.263764 1.69139 -0.236955 3.49144 0.791375 5.77788C1.31739 6.91274 1.95569 7.99209 2.69675 8.99977C1.95569 10.0075 1.31739 11.0868 0.791375 12.2217C-0.236955 14.5081 -0.261849 16.3062 0.714777 17.2848C1.19351 17.7635 1.86375 18 2.69005 18C3.56135 18 4.605 17.7357 5.77791 17.2082C6.91277 16.6822 7.99213 16.0439 8.99982 15.3028C10.0075 16.0439 11.0869 16.6822 12.2217 17.2082C13.3946 17.7357 14.4383 18 15.3096 18C16.1368 18 16.808 17.7616 17.2849 17.2848C18.2644 16.3062 18.2366 14.5081 17.2083 12.2217C16.6822 11.0868 16.0439 10.0075 15.3029 8.99977ZM16.4681 1.5315C17.3567 2.42003 16.6941 5.00616 14.5723 8.0423C13.8912 7.1901 13.163 6.37658 12.3912 5.60554C11.6211 4.83348 10.8085 4.10499 9.95729 3.42346C12.9973 1.30266 15.5844 0.639133 16.4681 1.5315ZM13.8648 8.99977C13.1593 9.90801 12.3979 10.7714 11.585 11.5849C10.7717 12.4001 9.90825 13.1637 8.99982 13.8714C8.09138 13.1637 7.22797 12.4001 6.41463 11.5849C5.59972 10.7714 4.8361 9.90797 4.12818 8.99977C5.54878 7.18517 7.18465 5.54995 8.99982 4.13007C9.90795 4.8374 10.7713 5.60037 11.585 6.4146C12.3992 7.22802 13.1619 8.09142 13.8686 8.99977H13.8648ZM1.5315 1.5315C1.78811 1.27394 2.18642 1.14851 2.69675 1.14851C3.952 1.14851 5.88515 1.91448 8.04617 3.42825C7.19203 4.10719 6.37688 4.83379 5.60461 5.60458C4.83276 6.37593 4.10459 7.18977 3.42348 8.0423C1.30171 5.00233 0.639136 2.4162 1.5315 1.5315ZM1.5315 16.468C0.642966 15.5795 1.3065 12.9934 3.42731 9.95724C4.10845 10.8094 4.83662 11.623 5.60844 12.394C6.37853 13.1661 7.19109 13.8946 8.04234 14.5761C5.00235 16.6978 2.41621 17.3604 1.5315 16.468ZM16.4681 16.468C15.5796 17.3566 12.9934 16.6931 9.95729 14.5713C10.8097 13.8908 11.6233 13.1629 12.3941 12.3911C13.1661 11.621 13.8946 10.8085 14.5762 9.95724C16.6979 12.9972 17.3605 15.5833 16.4681 16.468ZM9.95729 8.99977C9.95729 9.18914 9.90114 9.37426 9.79593 9.53171C9.69072 9.68917 9.54118 9.81189 9.36623 9.88436C9.19127 9.95683 8.99875 9.97579 8.81302 9.93884C8.62729 9.9019 8.45668 9.81071 8.32278 9.67681C8.18887 9.5429 8.09768 9.3723 8.06074 9.18656C8.02379 9.00083 8.04276 8.80832 8.11522 8.63336C8.18769 8.45841 8.31042 8.30887 8.46787 8.20366C8.62533 8.09845 8.81045 8.0423 8.99982 8.0423C9.25375 8.0423 9.49729 8.14318 9.67685 8.32274C9.85642 8.5023 9.95729 8.74583 9.95729 8.99977Z" fill="#64FFDA" fill-opacity="0.278431"/>
</svg>
