<svg width="22" height="20" viewBox="0 0 22 20" fill="none" xmlns="http://www.w3.org/2000/svg">
<path d="M11 5.5C11.7143 2.53938 14.4121 1.02766 20.2857 1.00001C20.3796 0.999633 20.4727 1.01878 20.5595 1.05634C20.6463 1.0939 20.7252 1.14913 20.7916 1.21885C20.858 1.28856 20.9106 1.37139 20.9463 1.46255C20.9821 1.55372 21.0004 1.65141 21 1.75001V15.25C21 15.4489 20.9247 15.6397 20.7908 15.7803C20.6568 15.921 20.4752 16 20.2857 16C14.5714 16 12.3638 17.2098 11 19M11 5.5C10.2857 2.53938 7.58795 1.02766 1.71429 1.00001C1.62039 0.999633 1.52735 1.01878 1.44053 1.05634C1.35371 1.0939 1.27482 1.14913 1.20842 1.21885C1.14203 1.28856 1.08943 1.37139 1.05366 1.46255C1.01788 1.55372 0.999651 1.65141 1.00001 1.75001V15.1595C1.00001 15.6227 1.27322 16 1.71429 16C7.42857 16 9.6442 17.2188 11 19M11 5.5V19" stroke="#64FFDA" stroke-opacity="0.278431" stroke-width="1.5625" stroke-linecap="round" stroke-linejoin="round"/>
</svg>
