<svg width="45" height="45" viewBox="0 0 45 45" fill="none" xmlns="http://www.w3.org/2000/svg">
<path d="M22.5 0C10.035 0 0 10.035 0 22.5C0 34.965 10.035 45 22.5 45C34.965 45 45 34.965 45 22.5C45 10.035 34.965 0 22.5 0ZM27.75 8.12438C27.9938 8.11688 28.215 8.37938 28.0706 8.64563L22.3631 19.1081C22.3343 19.1615 22.3197 19.2214 22.3209 19.282C22.3222 19.3427 22.3391 19.402 22.3701 19.4541C22.401 19.5063 22.445 19.5495 22.4977 19.5795C22.5504 19.6096 22.61 19.6255 22.6706 19.6256H32.5331C32.8519 19.6256 33.0056 20.0137 32.7731 20.2312L15.4856 36.3656C15.1762 36.6544 14.7169 36.2475 14.9644 35.9044L23.1469 24.615C23.1844 24.5627 23.2068 24.5011 23.2116 24.437C23.2164 24.3728 23.2035 24.3086 23.1743 24.2513C23.1451 24.194 23.1006 24.1458 23.0459 24.1121C22.9911 24.0783 22.9281 24.0603 22.8638 24.06H12.4256C12.3562 24.0598 12.2883 24.039 12.2307 24.0003C12.1731 23.9615 12.1283 23.9065 12.102 23.8422C12.0757 23.7779 12.069 23.7073 12.0829 23.6393C12.0968 23.5712 12.1306 23.5088 12.18 23.46L27.5175 8.22937C27.579 8.16519 27.6612 8.12752 27.75 8.12438Z" fill="#50C8C5"/>
</svg>
