<svg width="45" height="41" viewBox="0 0 45 41" fill="none" xmlns="http://www.w3.org/2000/svg">
<path d="M22.4725 40.1739L4.09535 36.1579L0 0H45L40.9004 36.1524L22.4725 40.1739Z" fill="#264DE4"/>
<path d="M37.3907 33.8503L40.8939 2.95642H22.5V37.1L37.3907 33.8503Z" fill="#2965F1"/>
<path d="M9.38718 16.367L9.89202 20.8016H22.4988V16.367H9.38718ZM8.37256 7.39124L8.88463 11.8259H22.4988V7.39124H8.37256ZM22.4988 27.8842L22.4741 27.8893L16.2001 26.5558L15.7989 23.019H10.1437L10.9329 29.982L22.4728 32.5036L22.4988 32.4981V27.8842Z" fill="#EBEBEB"/>
<path d="M35.5752 16.367L36.5921 7.39124H22.4802V11.8259H30.4183L29.9057 16.367H22.4802V20.8016H29.4172L28.7632 26.553L22.48 27.8879V32.5015L34.0291 29.982L34.1137 29.2328L35.4377 17.5578L35.5752 16.367Z" fill="white"/>
</svg>
