<svg width="40" height="45" viewBox="0 0 40 45" fill="none" xmlns="http://www.w3.org/2000/svg">
<path d="M9.9999 45C15.5198 45 19.9998 41.64 19.9998 37.5V30H9.9999C4.47996 30 0 33.36 0 37.5C0 41.64 4.47996 45 9.9999 45Z" fill="#0ACF83"/>
<path d="M0 22.5001C0 18.3601 4.47996 15.0001 9.9999 15.0001H19.9998V30.0001H9.9999C4.47996 30.0001 0 26.6401 0 22.5001Z" fill="#A259FF"/>
<path d="M0 7.50001C0 3.36001 4.47996 0 9.9999 0H19.9998V15H9.9999C4.47996 15 0 11.64 0 7.50001Z" fill="#F24E1E"/>
<path d="M20 0H29.9999C35.5198 0 39.9998 3.36001 39.9998 7.50001C39.9998 11.64 35.5198 15 29.9999 15H20V0Z" fill="#FF7262"/>
<path d="M39.9998 22.5001C39.9998 26.6401 35.5198 30.0001 29.9999 30.0001C24.48 30.0001 20 26.6401 20 22.5001C20 18.3601 24.48 15.0001 29.9999 15.0001C35.5198 15.0001 39.9998 18.3601 39.9998 22.5001Z" fill="#1ABCFE"/>
</svg>
