<svg width="45" height="45" viewBox="0 0 45 45" fill="none" xmlns="http://www.w3.org/2000/svg">
<path d="M44.1511 20.4957L24.5035 0.848603C23.3728 -0.282868 21.5377 -0.282868 20.4051 0.848603L16.3256 4.92888L21.5009 10.1043C22.7041 9.69824 24.0829 9.97059 25.0415 10.9292C26.005 11.8938 26.2752 13.2844 25.8592 14.4915L30.847 19.4797C32.0537 19.0637 33.4465 19.3325 34.4097 20.2978C35.7571 21.6443 35.7571 23.827 34.4097 25.1741C34.0895 25.4945 33.7092 25.7487 33.2908 25.9221C32.8723 26.0955 32.4238 26.1847 31.9708 26.1847C31.5179 26.1847 31.0693 26.0955 30.6509 25.9221C30.2324 25.7487 29.8522 25.4945 29.532 25.1741C29.0509 24.6927 28.7229 24.0798 28.5894 23.4124C28.4559 22.745 28.5228 22.0531 28.7816 21.4236L24.1303 16.7722L24.1296 29.0142C24.4671 29.1803 24.7752 29.4004 25.0418 29.6658C26.3886 31.0122 26.3886 33.1942 25.0418 34.5435C23.6947 35.89 21.5113 35.89 20.1656 34.5435C18.8188 33.1946 18.8188 31.0126 20.1656 29.6658C20.4882 29.3426 20.872 29.0869 21.2945 28.9136V16.5584C20.8717 16.3855 20.4878 16.1296 20.1656 15.8058C19.1453 14.7863 18.8997 13.2891 19.423 12.0357L14.3208 6.93337L0.848842 20.4048C0.305328 20.9485 0 21.6858 0 22.4545C0 23.2233 0.305328 23.9606 0.848842 24.5043L20.4968 44.1514C21.6282 45.2829 23.4626 45.2829 24.5959 44.1514L44.1515 24.5956C44.6949 24.0517 45.0001 23.3144 45 22.5456C44.9999 21.7768 44.6946 21.0394 44.1511 20.4957Z" fill="#F34F29"/>
</svg>
