<svg width="45" height="41" viewBox="0 0 45 41" fill="none" xmlns="http://www.w3.org/2000/svg">
<path d="M45 0L40.9004 36.1524L22.4725 40.1739L4.09535 36.1579L0 0H45Z" fill="#E44D26"/>
<path d="M14.5293 11.8259H22.4988V7.39124H8.37256L8.50732 8.58095L9.89202 20.8016H22.4988V16.367H15.0442L14.5293 11.8259ZM15.7989 23.019H10.1437L10.9329 29.982L22.4728 32.5036L22.4988 32.4981V27.8842L22.4741 27.8893L16.2001 26.5558L15.7989 23.019Z" fill="#EBEBEB"/>
<path d="M22.4802 20.8016H29.4172L28.7632 26.553L22.48 27.8879V32.5015L34.0291 29.982L34.1137 29.2328L35.4377 17.5578L35.5752 16.367H22.4802V20.8016ZM22.4802 11.815V11.8259H36.0878L36.2007 10.8292L36.4575 8.58095L36.5921 7.39124H22.4802V11.815Z" fill="white"/>
</svg>
