<svg width="45" height="45" viewBox="0 0 45 45" fill="none" xmlns="http://www.w3.org/2000/svg">
<path d="M0 0H45V45H0V0Z" fill="#F0DB4F"/>
<path d="M41.3171 34.2674C40.9874 32.2144 39.6488 30.4901 35.6834 28.8822C34.3059 28.2491 32.7703 27.7958 32.3127 26.752C32.1502 26.1445 32.1286 25.8022 32.2314 25.4345C32.5266 24.2411 33.9511 23.869 35.0802 24.2112C35.8074 24.455 36.4958 25.0154 36.911 25.9094C38.8529 24.6519 38.8489 24.6602 40.2049 23.7961C39.7084 23.0264 39.4435 22.6713 39.1185 22.342C37.9506 21.0375 36.3592 20.3656 33.8142 20.4171L32.4885 20.5885C31.2181 20.9095 30.0074 21.5763 29.2974 22.4703C27.1672 24.8874 27.7747 29.1176 30.3669 30.8585C32.9205 32.7752 36.672 33.2112 37.1512 35.0035C37.6174 37.1977 35.5386 37.908 33.4723 37.6557C31.9496 37.339 31.1027 36.5651 30.1871 35.1578C28.5019 36.133 28.5019 36.133 26.7693 37.1294C27.1801 38.0277 27.6119 38.4343 28.3006 39.2125C31.5603 42.5189 39.7174 42.3565 41.1805 37.3519C41.2398 37.1801 41.6338 36.0341 41.3171 34.2674ZM24.4633 20.682H20.2542L20.237 31.5638C20.237 33.878 20.3567 35.9996 19.9803 36.6499C19.3645 37.9289 17.7688 37.7704 17.0416 37.5223C16.3015 37.1586 15.9251 36.6413 15.4891 35.9101C15.3694 35.7002 15.2795 35.5377 15.2493 35.5251L11.8271 37.6208C12.3962 38.7887 13.2345 39.8024 14.3082 40.461C15.9122 41.4236 18.0679 41.7188 20.3225 41.2011C21.7899 40.7737 23.0559 39.8884 23.7188 38.5407C24.6772 36.7739 24.4715 34.6354 24.4629 32.2701C24.4845 28.4113 24.4633 24.5531 24.4633 20.682Z" fill="#323330"/>
</svg>
