<svg width="45" height="45" viewBox="0 0 45 45" fill="none" xmlns="http://www.w3.org/2000/svg">
<path d="M36.999 14.5854C36.5201 14.4007 36.0371 14.2296 35.5505 14.0723C35.6323 13.6969 35.7075 13.3261 35.7743 12.9618C36.8708 6.97914 36.154 2.15941 33.7055 0.572525C31.358 -0.948768 27.5187 0.637525 23.6413 4.43029C23.2592 4.80475 22.8856 5.19 22.5207 5.58568C22.2765 5.32257 22.028 5.06456 21.7753 4.81179C17.7115 0.756463 13.6383 -0.952719 11.1925 0.638711C8.84707 2.16475 8.15256 6.69563 9.13975 12.3655C9.23796 12.927 9.34886 13.4857 9.47232 14.0409C8.89576 14.225 8.33941 14.421 7.80697 14.6297C3.0426 16.4967 0 19.4225 0 22.4574C0 25.5919 3.26637 28.7358 8.22867 30.6422C8.63097 30.7961 9.03663 30.9387 9.44525 31.0699C9.31254 31.6679 9.19472 32.2699 9.09193 32.8753C8.1508 38.4468 8.88574 42.8706 11.2249 44.3869C13.6408 45.9529 17.6957 44.3435 21.6439 40.4642C21.9641 40.1488 22.2772 39.8245 22.583 39.4915C22.978 39.92 23.3837 40.336 23.7994 40.739C27.624 44.4379 31.4012 45.9315 33.738 44.411C36.1517 42.8406 36.9362 38.0882 35.9177 32.3063C35.8375 31.8533 35.7475 31.4026 35.6479 30.9545C35.9327 30.8597 36.2122 30.7621 36.4846 30.6605C41.6435 28.7396 45 25.6337 45 22.4574C45 19.4115 41.8591 16.4659 36.999 14.5854ZM35.8801 28.6098C35.634 28.7012 35.3816 28.7895 35.1243 28.8755C34.5547 26.849 33.7862 24.6943 32.8456 22.4679C33.7431 20.2946 34.4821 18.1674 35.0357 16.1541C35.496 16.3039 35.9427 16.4617 36.3734 16.6283C40.5376 18.2397 43.0777 20.6218 43.0777 22.4574C43.0777 24.4126 40.3344 26.9508 35.8801 28.6098ZM34.032 32.7259C34.4823 35.2825 34.5465 37.5941 34.2482 39.4012C33.9803 41.0251 33.4413 42.1076 32.7748 42.5412C31.3567 43.4639 28.324 42.2646 25.0532 39.1011C24.6666 38.7264 24.2893 38.3397 23.9217 37.9414C25.1898 36.3828 26.457 34.5708 27.6938 32.5584C29.8693 32.3415 31.9245 31.9866 33.7883 31.5024C33.8781 31.908 33.9593 32.316 34.032 32.7259ZM15.3415 42.3818C13.956 42.9316 12.8524 42.9474 12.1853 42.5152C10.7659 41.5951 10.1758 38.0429 10.9807 33.2783C11.0764 32.7153 11.1859 32.1554 11.3092 31.5992C13.1525 32.0576 15.1928 32.3871 17.3733 32.5859C18.6186 34.555 19.9223 36.365 21.2363 37.9499C20.9571 38.2536 20.6712 38.5495 20.379 38.8374C18.633 40.5527 16.8834 41.7697 15.3415 42.3818ZM8.85058 28.5977C6.65631 27.7547 4.84418 26.6591 3.60211 25.4636C2.4859 24.3894 1.92252 23.3228 1.92252 22.4574C1.92252 20.6157 4.36535 18.2665 8.43979 16.67C8.93426 16.4764 9.45176 16.2936 9.98877 16.1221C10.552 18.1808 11.2906 20.3333 12.182 22.51C11.279 24.7188 10.5298 26.9057 9.96117 28.9887C9.58818 28.8686 9.21787 28.7382 8.85058 28.5977ZM11.0264 11.9504C10.1807 7.09274 10.7423 3.42841 12.1558 2.50872C13.6612 1.52916 16.9901 2.92579 20.4989 6.42753C20.7277 6.65639 20.9528 6.88989 21.1741 7.12791C19.8666 8.70591 18.5748 10.5024 17.3406 12.4599C15.2242 12.6804 13.1984 13.0345 11.3358 13.5088C11.221 12.9924 11.1179 12.4727 11.0264 11.9504ZM30.4374 17.3378C29.9975 16.4836 29.5412 15.6403 29.0689 14.8083C30.5047 15.0124 31.8804 15.2832 33.1722 15.6144C32.7844 17.0116 32.301 18.4722 31.732 19.9698C31.3161 19.0829 30.8845 18.2053 30.4374 17.3378ZM22.5216 8.67212C23.4083 9.75185 24.2963 10.9572 25.1698 12.2651C23.3979 12.1711 21.6231 12.1707 19.8512 12.264C20.7255 10.9681 21.6211 9.76429 22.5216 8.67212ZM14.555 17.3526C14.1135 18.2132 13.69 19.0852 13.2847 19.968C12.725 18.4758 12.246 17.0084 11.8549 15.5914C13.1388 15.2686 14.5079 15.0047 15.9346 14.8043C15.457 15.6414 14.9971 16.4912 14.555 17.3526ZM15.9755 30.2642C14.5016 30.0793 13.1119 29.829 11.8283 29.5148C12.2256 28.0726 12.7151 26.574 13.287 25.0497C13.6939 25.9332 14.1192 26.8058 14.5626 27.6667C15.0186 28.5519 15.4907 29.4188 15.9755 30.2642ZM22.5747 36.3948C21.6635 35.29 20.7547 34.0676 19.8671 32.753C20.7288 32.7909 21.6072 32.8103 22.5 32.8103C23.4172 32.8103 24.3239 32.7872 25.2163 32.7425C24.3401 34.0809 23.4554 35.305 22.5747 36.3948ZM31.7501 24.9719C32.3517 26.5129 32.8586 28.0036 33.2612 29.4212C31.9565 29.7559 30.5478 30.0253 29.0635 30.2255C29.5391 29.378 29.9997 28.52 30.445 27.6519C30.8977 26.7696 31.3328 25.876 31.7501 24.9719ZM28.7798 26.5724C28.0981 27.9033 27.3782 29.209 26.621 30.4873C25.2495 30.5964 23.875 30.6507 22.5 30.6499C21.0996 30.6499 19.7374 30.6009 18.4257 30.5052C17.6488 29.2299 16.9151 27.922 16.2262 26.5843C15.5405 25.2536 14.9002 23.8942 14.3063 22.509C14.8987 21.1234 15.5372 19.7633 16.2206 18.4317L16.2204 18.4319C16.9035 17.0999 17.6313 15.7976 18.4024 14.5277C19.7406 14.4139 21.1129 14.3546 22.4998 14.3546C23.8931 14.3546 25.2673 14.4145 26.6052 14.5291C27.3684 15.7971 28.0917 17.0949 28.7735 18.4202C29.4591 19.7489 30.1061 21.1024 30.7134 22.4783C30.1123 23.8684 29.4674 25.234 28.7798 26.5724ZM32.7454 2.44431C34.2522 3.4211 34.8383 7.36006 33.8915 12.5255C33.831 12.8551 33.7632 13.1908 33.6894 13.5312C31.8222 13.0467 29.7949 12.6866 27.6724 12.4627C26.4359 10.4836 25.1546 8.68437 23.8685 7.12673C24.2055 6.76152 24.5506 6.40578 24.9035 6.05985C28.2257 2.81041 31.3307 1.52738 32.7454 2.44431ZM22.5 17.9409C24.7192 17.9409 26.5184 19.9631 26.5184 22.4574C26.5184 24.9517 24.7192 26.9739 22.5 26.9739C20.2808 26.9739 18.4816 24.9517 18.4816 22.4574C18.4816 19.9631 20.2808 17.9409 22.5 17.9409Z" fill="#00D8FF"/>
</svg>
