<svg width="45" height="45" viewBox="0 0 45 45" fill="none" xmlns="http://www.w3.org/2000/svg">
<path d="M31.1797 31.4276C32.8402 31.2466 34.1 29.7386 34.0427 27.9289C33.9856 26.1193 32.5539 24.6715 30.836 24.6715H30.7216C28.9462 24.7319 27.572 26.3002 27.6293 28.1701C27.6866 29.075 28.0301 29.8592 28.5455 30.402C26.5985 34.4437 23.6209 37.3994 19.1543 39.8726C16.1194 41.5616 12.97 42.1648 9.82054 41.7427C7.24363 41.3807 5.23941 40.1744 3.97944 38.1835C2.14713 35.2278 1.97539 32.0307 3.52153 28.8337C4.6096 26.5415 6.3273 24.8524 7.41537 24.0079C7.18633 23.2238 6.84268 21.8968 6.67095 20.9317C-1.63228 27.2654 -0.773249 35.8311 1.74635 39.8726C3.63596 42.8888 7.47267 44.7587 11.7101 44.7587C12.8553 44.7587 14.0005 44.638 15.1459 44.3366C22.4757 42.8285 28.0303 38.2439 31.1797 31.4276ZM41.2581 23.9478C36.906 18.5791 30.4926 15.6234 23.1628 15.6234H22.2466C21.7312 14.5376 20.6432 13.8136 19.4407 13.8136H19.3261C17.5511 13.874 16.1768 15.4423 16.234 17.3124C16.2913 19.122 17.7228 20.5697 19.4407 20.5697H19.5551C20.8149 20.5094 21.903 19.6648 22.3611 18.5187H23.3918C27.7439 18.5187 31.8668 19.8457 35.5891 22.4396C38.4521 24.4303 40.5137 27.0242 41.6588 30.1608C42.6323 32.6943 42.575 35.1675 41.5442 37.2789C39.941 40.4758 37.2496 42.2252 33.6993 42.2252C31.4087 42.2252 29.2328 41.5012 28.0874 40.9583C27.4576 41.5616 26.3122 42.5266 25.5105 43.1301C27.9729 44.3364 30.4926 45 32.8975 45C38.3948 45 42.4606 41.8029 44.0067 38.6059C45.6673 35.1071 45.5527 29.075 41.2581 23.9478ZM12.1682 32.4529C12.2255 34.2626 13.6571 35.7102 15.3749 35.7102H15.4896C17.2647 35.65 18.639 34.0815 18.5817 32.2116C18.5245 30.4019 17.0928 28.9543 15.3749 28.9543H15.2605C15.1459 28.9543 14.974 28.9543 14.8597 29.0145C12.5119 24.9126 11.5384 20.449 11.8821 15.6232C12.1109 12.0039 13.2563 8.86709 15.2605 6.2732C16.9211 4.04129 20.1278 2.95551 22.3039 2.89534C28.3737 2.77461 30.9505 10.737 31.1224 13.9342C31.8668 14.1151 33.1266 14.5374 33.9856 14.839C33.2983 5.06707 27.572 0 22.0749 0C16.9211 0 12.1682 3.92093 10.2784 9.71179C7.64441 17.4329 9.36228 24.8524 12.569 30.7037C12.2828 31.1258 12.1109 31.7893 12.1682 32.4529Z" fill="#764ABC"/>
</svg>
