<svg width="50" height="45" viewBox="0 0 50 45" fill="none" xmlns="http://www.w3.org/2000/svg">
<path d="M43.0539 25.8688C41.3096 25.8796 39.7935 26.3838 38.5242 27.1291C38.0583 26.0221 37.5925 25.0358 37.5105 24.3124C37.419 23.4686 37.3095 22.9534 37.419 21.945C37.5287 20.9367 38.0219 19.5008 38.0126 19.3913C38.0036 19.2817 37.903 18.7665 36.8984 18.7557C35.8939 18.7447 35.0263 18.9858 34.9258 19.3036C34.8253 19.6214 34.6336 20.3448 34.5057 21.0899C34.3322 22.1862 32.4966 26.0987 31.4465 28.1483C31.1084 27.3484 30.8162 26.6468 30.7522 26.0879C30.6609 25.2441 30.5512 24.7289 30.6609 23.7205C30.7706 22.7122 31.2637 21.2766 31.2545 21.1668C31.2453 21.0573 31.1449 20.542 30.1403 20.5312C29.1356 20.5202 28.268 20.7613 28.1677 21.0791C28.0672 21.3971 27.9575 22.1422 27.7476 22.8657C27.5374 23.5891 25.0991 30.1215 24.4598 31.8091C24.2015 32.4921 23.9305 33.1682 23.647 33.8368C23.647 33.8368 23.6378 33.8697 23.6104 33.9245C23.5213 34.1341 23.4301 34.3424 23.3366 34.5492V34.56C23.1995 34.8562 23.0534 35.13 22.9803 35.13C22.9255 35.13 22.825 34.341 22.9985 33.2668C23.3638 30.9982 24.2314 27.469 24.2224 27.3484C24.2224 27.2826 24.3867 26.6689 23.6562 26.3509C22.9437 26.0331 22.6881 26.5591 22.6241 26.5591C22.5602 26.5591 22.5144 26.7455 22.5144 26.7455C22.5144 26.7455 23.3092 22.778 20.9985 22.778C19.5556 22.778 17.5646 24.6741 16.5783 26.3838C15.457 27.1161 14.3368 27.8504 13.2174 28.5869C12.6788 28.9486 12.1216 29.3103 11.601 29.65C11.5644 29.6062 11.528 29.5513 11.4914 29.5075C8.69674 25.9236 3.52778 23.3917 3.74694 18.5804C3.8292 16.8267 4.33137 12.2234 13.6742 6.63384C21.3637 2.08528 27.4828 3.34558 28.5422 6.14048C30.0581 10.1301 25.2636 17.5391 17.318 18.613C14.286 19.0187 12.6968 17.6158 12.2952 17.0897C11.875 16.5416 11.811 16.5087 11.6557 16.6185C11.4001 16.783 11.5644 17.2761 11.6557 17.561C11.8933 18.3061 12.8704 19.6214 14.5234 20.2682C15.9846 20.838 19.5372 21.156 23.8387 19.1612C28.6516 16.9252 32.4144 10.7109 31.3094 5.50492C30.2042 0.222093 22.8981 -1.52052 15.9846 1.42763C11.875 3.18152 7.41821 5.94328 4.21268 9.53826C0.404311 13.8125 -0.198526 17.5281 0.0480535 19.0845C0.934094 24.6083 7.28131 28.2033 9.82015 30.8665C9.69226 30.9542 9.57338 31.0311 9.4731 31.0969C8.20358 31.853 3.36326 34.8888 2.15779 38.1002C0.787987 41.7389 2.37714 44.3477 3.42731 44.6981C6.68768 45.7833 10.0393 43.8325 11.8384 40.61C13.6375 37.3878 13.4184 33.201 12.5874 31.283C12.5782 31.2612 12.5692 31.2391 12.5507 31.2172C12.8796 30.9871 13.2174 30.746 13.5463 30.5159C14.1506 30.0871 14.7627 29.6741 15.382 29.2772C15.0714 30.2966 14.843 31.5132 14.7335 33.2668C14.5964 35.3274 15.2995 38.0015 16.222 39.0536C16.6331 39.5143 17.1171 39.5251 17.4277 39.5251C18.5053 39.5251 18.9894 38.4509 19.5282 37.1796C20.1857 35.6234 20.7793 33.8149 20.7793 33.8149C20.7793 33.8149 20.0396 38.7031 22.0488 38.7031C22.7794 38.7031 23.5191 37.5632 23.848 36.9824V36.9932C23.848 36.9932 23.8662 36.9603 23.9028 36.8837C23.9758 36.7412 24.0215 36.6533 24.0215 36.6533V36.6317C24.3137 36.0178 24.9714 34.6258 25.9485 32.3132C27.2088 29.3322 28.4235 25.6058 28.4235 25.6058C28.4235 25.6058 28.5332 26.5154 28.9074 28.0279C29.1268 28.9157 29.5831 29.8911 29.9486 30.8336C29.6564 31.327 29.4736 31.6008 29.4736 31.6008L29.4828 31.6119C29.2453 31.9844 28.9897 32.3899 28.7065 32.7847C27.711 34.2093 26.5239 35.8426 26.3594 36.3137C26.1674 36.8726 26.2133 37.2783 26.5787 37.6071C26.8435 37.8483 27.3183 37.8809 27.8024 37.8483C28.6975 37.7714 29.3275 37.5084 29.638 37.3441C30.1221 37.1359 30.6883 36.8178 31.2179 36.3466C32.1952 35.4807 32.7887 34.2422 32.734 32.6094C32.7066 31.7106 32.46 30.8118 32.1586 29.9677C32.2501 29.8145 32.3321 29.661 32.4236 29.5075C33.9669 26.8003 35.1634 23.8301 35.1634 23.8301C35.1634 23.8301 35.2731 24.7397 35.6473 26.2524C35.8301 27.0196 36.2045 27.8526 36.5332 28.6635C35.0811 30.0775 34.1861 31.7214 33.8664 32.7955C33.2912 34.7904 33.7385 35.6889 34.588 35.8972C34.9714 35.9959 35.5194 35.7766 35.9213 35.5684C36.4327 35.3712 37.0355 35.0315 37.611 34.5271C38.5883 33.6614 39.5287 32.4557 39.4739 30.8228C39.4465 30.0775 39.2822 29.343 39.0538 28.6306C40.2867 28.0171 41.8759 27.6773 43.9031 27.9621C48.2505 28.5758 49.1089 31.8309 48.9444 33.2012C48.7801 34.5711 47.8668 35.3164 47.5656 35.5465C47.264 35.7768 47.1637 35.8535 47.1911 36.0178C47.2275 36.2589 47.3737 36.2481 47.6294 36.2041C47.9857 36.1275 49.9127 35.0971 49.9948 32.5763C50.1319 29.354 47.5746 25.8359 43.0539 25.8688ZM9.51874 39.4374C8.07569 41.3224 6.06663 42.0349 5.199 41.4322C4.26752 40.7854 4.63278 38.0015 6.40447 36.0069C7.48206 34.7904 8.87027 33.6612 9.79273 32.9709C10.0027 32.8174 10.3133 32.5983 10.6878 32.3243C10.7516 32.2803 10.7883 32.2585 10.7883 32.2585L11.0074 32.0939C11.6557 34.9436 11.0348 37.4536 9.51874 39.4374ZM20.0214 30.8665C19.519 32.3353 18.4688 36.0946 17.8296 35.8864C17.2816 35.711 16.9435 32.8614 17.7199 30.0446C18.1126 28.6306 18.9436 26.9427 19.4277 26.2853C20.2131 25.233 21.0807 24.8821 21.2907 25.3099C21.5557 25.8688 20.3318 29.9459 20.0214 30.8665ZM28.6883 35.8424C28.4781 35.974 28.2774 36.0617 28.1859 35.9959C28.1221 35.9519 28.2774 35.7766 28.2774 35.7766C28.2774 35.7766 29.3642 34.3739 29.7933 33.7381C30.04 33.3655 30.3321 32.9272 30.6427 32.4338V32.5763C30.6427 34.2533 29.2909 35.3822 28.6881 35.8424H28.6883ZM35.3733 34.0121C35.218 33.8805 35.2454 33.4422 35.766 32.0721C35.967 31.535 36.4417 30.6364 37.2547 29.7705C37.346 30.1212 37.41 30.4611 37.4008 30.7789C37.3916 32.8943 36.1315 33.6833 35.3733 34.0121Z" fill="#CD6799"/>
</svg>
