<svg width="20" height="18" viewBox="0 0 20 18" fill="none" xmlns="http://www.w3.org/2000/svg">
<path opacity="0.2" d="M19.2304 3.59822L9.99973 6.47683L0.769043 3.59822L9.99973 0.719604L19.2304 3.59822Z" fill="#64FFDA" fill-opacity="0.278431"/>
<path d="M19.4739 2.91555L10.2432 0.0369355C10.0853 -0.0123118 9.91455 -0.0123118 9.75665 0.0369355L0.525957 2.91555C0.386339 2.9596 0.263183 3.04025 0.171137 3.14789C0.0790902 3.25554 0.0220261 3.38565 0.00673106 3.52275C0.00221808 3.54772 -3.34565e-05 3.573 3.75643e-07 3.59832V10.7948C3.75643e-07 10.9857 0.0810434 11.1688 0.225301 11.3037C0.369558 11.4387 0.565214 11.5145 0.769225 11.5145C0.973235 11.5145 1.16889 11.4387 1.31315 11.3037C1.45741 11.1688 1.53845 10.9857 1.53845 10.7948V4.59684L4.76823 5.60345C3.91012 6.90045 3.63724 8.46303 4.00952 9.94809C4.3818 11.4331 5.36879 12.7193 6.75379 13.5241C5.02303 14.1592 3.52689 15.308 2.43267 16.8786C2.37576 16.9577 2.33624 17.0467 2.31639 17.1402C2.29653 17.2338 2.29676 17.3301 2.31704 17.4235C2.33732 17.517 2.37726 17.6058 2.43453 17.6847C2.4918 17.7636 2.56527 17.831 2.65065 17.8831C2.73604 17.9352 2.83164 17.9709 2.93191 17.9882C3.03217 18.0054 3.1351 18.0038 3.2347 17.9835C3.3343 17.9632 3.4286 17.9246 3.5121 17.8698C3.59561 17.8151 3.66666 17.7455 3.72112 17.6648C5.17015 15.585 7.45859 14.3931 9.99991 14.3931C12.5412 14.3931 14.8297 15.585 16.2787 17.6648C16.3915 17.8217 16.5658 17.9307 16.7639 17.9684C16.9619 18.006 17.1679 17.9692 17.3372 17.8659C17.5064 17.7626 17.6255 17.6011 17.6685 17.4164C17.7115 17.2316 17.6751 17.0384 17.5672 16.8786C16.4729 15.308 14.971 14.1592 13.246 13.5241C14.6297 12.7193 15.6158 11.434 15.988 9.95005C16.3602 8.46607 16.0882 6.90457 15.2316 5.60795L19.4739 4.28559C19.6271 4.23784 19.7603 4.14621 19.8548 4.02367C19.9492 3.90112 20 3.75388 20 3.60282C20 3.45175 19.9492 3.30451 19.8548 3.18197C19.7603 3.05942 19.6271 2.96779 19.4739 2.92004V2.91555ZM14.6153 8.63589C14.6155 9.31853 14.4427 9.99149 14.111 10.5996C13.7794 11.2076 13.2984 11.7335 12.7075 12.1339C12.1166 12.5344 11.4326 12.7981 10.7117 12.9034C9.99076 13.0087 9.25342 12.9525 8.56017 12.7396C7.86691 12.5266 7.23751 12.1629 6.72359 11.6783C6.20967 11.1937 5.82588 10.6021 5.60371 9.95183C5.38154 9.3016 5.32733 8.61136 5.44551 7.93773C5.5637 7.2641 5.85092 6.62629 6.2836 6.07662L9.75665 7.1561C9.91455 7.20535 10.0853 7.20535 10.2432 7.1561L13.7162 6.07662C14.3006 6.81786 14.6157 7.71482 14.6153 8.63589ZM9.99991 5.71859L3.2019 3.59832L9.99991 1.47804L16.7979 3.59832L9.99991 5.71859Z" fill="#64FFDA" fill-opacity="0.278431"/>
</svg>
