<svg width="20" height="18" viewBox="0 0 20 18" fill="none" xmlns="http://www.w3.org/2000/svg">
<path d="M2 18C1.45 18 0.979001 17.8143 0.587001 17.4429C0.195002 17.0716 -0.000664969 16.6257 1.69779e-06 16.1053V5.68421C1.69779e-06 5.16316 0.196002 4.71695 0.588002 4.34558C0.980002 3.97421 1.45067 3.78884 2 3.78947H6V1.89474C6 1.37369 6.196 0.927475 6.588 0.556107C6.98 0.184738 7.45067 -0.00062997 8 1.60844e-06H12C12.55 1.60844e-06 13.021 0.185686 13.413 0.557054C13.805 0.928422 14.0007 1.37432 14 1.89474V3.78947H18C18.55 3.78947 19.021 3.97516 19.413 4.34653C19.805 4.7179 20.0007 5.16379 20 5.68421V16.1053C20 16.6263 19.804 17.0725 19.412 17.4439C19.02 17.8153 18.5493 18.0006 18 18H2ZM2 16.1053H18V5.68421H2V16.1053ZM8 3.78947H12V1.89474H8V3.78947Z" fill="#64FFDA" fill-opacity="0.278431"/>
</svg>
