<svg width="45" height="35" viewBox="0 0 45 35" fill="none" xmlns="http://www.w3.org/2000/svg">
<path d="M22.5 0C16.4999 0 12.7512 3.88757 11.25 11.6659C13.4993 7.77788 16.1251 6.31993 19.1243 7.29205C20.8368 7.84533 22.0605 9.45505 23.4158 11.2389C25.6215 14.1406 28.1746 17.5 33.75 17.5C39.7498 17.5 43.4988 13.612 45 5.83181C42.7504 9.72212 40.1249 11.1801 37.1254 10.208C35.4132 9.65421 34.1909 8.04495 32.8338 6.26113C30.6295 3.35935 28.0772 0 22.5 0ZM11.25 17.5C5.25023 17.5 1.50117 21.388 0 29.1682C2.2493 25.2779 4.87477 23.8199 7.8743 24.792C9.58676 25.3458 10.8105 26.9551 12.1658 28.7389C14.3715 31.6406 16.9246 35 22.5 35C28.4998 35 32.2488 31.1124 33.75 23.3341C31.5004 27.2221 28.8749 28.6801 25.8754 27.708C24.1632 27.1547 22.9409 25.545 21.5838 23.7611C19.3795 20.8594 16.8272 17.5 11.25 17.5Z" fill="#38BDF8"/>
</svg>
