<svg width="45" height="45" viewBox="0 0 45 45" fill="none" xmlns="http://www.w3.org/2000/svg">
<mask id="mask0_678_178" style="mask-type:alpha" maskUnits="userSpaceOnUse" x="0" y="0" width="45" height="45">
<path fill-rule="evenodd" clip-rule="evenodd" d="M31.9103 44.8076C32.2684 44.948 32.6514 45.0128 33.0354 44.9979C33.4195 44.9831 33.7964 44.889 34.1427 44.7214L43.4074 40.2401C43.8845 40.0092 44.2871 39.6476 44.5689 39.197C44.8506 38.7463 45 38.2248 45 37.6925V7.30706C45.0001 6.77473 44.8507 6.25317 44.569 5.80242C44.2872 5.35167 43.8846 4.99003 43.4074 4.75913L34.1427 0.27851C33.6192 0.0253087 33.0303 -0.0580571 32.4576 0.0399502C31.8849 0.137958 31.3566 0.412491 30.946 0.825556L13.2097 17.0906L5.48449 11.1958C5.136 10.9298 4.70588 10.7948 4.26876 10.8143C3.83163 10.8338 3.41509 11.0065 3.09141 11.3025L0.613601 13.5681C0.420505 13.7446 0.266192 13.9597 0.160534 14.1996C0.0548763 14.4395 0.000199085 14.699 5.42655e-07 14.9614C-0.000198 15.2237 0.0540865 15.4833 0.159381 15.7233C0.264676 15.9634 0.418663 16.1788 0.611491 16.3556L7.3112 22.4996L0.611843 28.644C0.41912 28.8208 0.265225 29.0362 0.159996 29.2762C0.0547661 29.5163 0.000516888 29.7757 0.00071541 30.038C0.000913933 30.3004 0.0555558 30.5597 0.161149 30.7996C0.266741 31.0395 0.420962 31.2546 0.613952 31.4312L3.09176 33.6967C3.41537 33.9928 3.8319 34.1656 4.26904 34.1852C4.70618 34.2047 5.13634 34.0698 5.48484 33.8038L13.21 27.9093L30.9463 44.174C31.2206 44.4502 31.5486 44.666 31.9103 44.8076ZM33.7567 12.2312L20.2993 22.4996L33.7571 32.7684L33.7567 12.2312Z" fill="white"/>
</mask>
<g mask="url(#mask0_678_178)">
<path d="M43.4076 4.76642L34.1356 0.278382C33.6119 0.0250127 33.0227 -0.0584435 32.4498 0.0395646C31.8768 0.137573 31.3483 0.412198 30.9374 0.825428L0.584296 28.6439C0.391428 28.8206 0.237403 29.0359 0.132081 29.276C0.0267582 29.516 -0.0275418 29.7756 -0.0273432 30.0379C-0.0271446 30.3003 0.0275481 30.5597 0.133234 30.7996C0.23892 31.0395 0.39327 31.2546 0.586405 31.431L3.06562 33.6966C3.38952 33.9927 3.80627 34.1654 4.24361 34.185C4.68096 34.2046 5.11133 34.0697 5.4601 33.8037L42.0123 5.93013C43.2385 4.99507 44.9999 5.8743 44.9999 7.42143V7.3133C44.9998 6.78113 44.8504 6.25977 44.5687 5.80916C44.2871 5.35856 43.8846 4.99736 43.4076 4.76642Z" fill="#0065A9"/>
<g filter="url(#filter0_d_678_178)">
<path d="M43.4076 40.2329L34.1356 44.7203C33.6119 44.9737 33.0228 45.0573 32.4499 44.9594C31.8769 44.8615 31.3484 44.587 30.9374 44.1739L0.584296 16.3551C0.391428 16.1784 0.237403 15.9631 0.132081 15.723C0.0267582 15.483 -0.0275418 15.2234 -0.0273432 14.9611C-0.0271446 14.6987 0.0275481 14.4393 0.133234 14.1994C0.23892 13.9595 0.39327 13.7444 0.586405 13.568L3.06562 11.3024C3.38952 11.0063 3.80627 10.8336 4.24361 10.814C4.68096 10.7944 5.11133 10.9293 5.4601 11.1953L42.0123 39.0685C43.2385 40.0039 44.9999 39.1247 44.9999 37.5776V37.6857C44.9998 38.2179 44.8504 38.7392 44.5687 39.1898C44.2871 39.6404 43.8846 40.002 43.4076 40.2329Z" fill="#007ACC"/>
</g>
<g filter="url(#filter1_d_678_178)">
<path d="M34.136 44.7215C33.6122 44.9747 33.023 45.058 32.45 44.9599C31.877 44.8619 31.3485 44.5872 30.9375 44.1741C31.9753 45.2173 33.75 44.4783 33.75 43.0029V1.99602C33.75 0.520621 31.9753 -0.218316 30.9375 0.825242C31.3485 0.412061 31.877 0.137448 32.45 0.0393824C33.023 -0.0586828 33.6122 0.0246453 34.136 0.277843L43.4063 4.75952C43.8837 4.99027 44.2865 5.35184 44.5685 5.80261C44.8504 6.25337 45 6.77501 45 7.30746V37.6926C45 38.225 44.8504 38.7466 44.5685 39.1974C44.2865 39.6482 43.8837 40.0097 43.4063 40.2405L34.136 44.7215Z" fill="#1F9CF0"/>
</g>
<path opacity="0.25" fill-rule="evenodd" clip-rule="evenodd" d="M31.8831 44.8076C32.2412 44.9479 32.6241 45.0127 33.0081 44.9978C33.3921 44.983 33.7689 44.8889 34.1152 44.7214L43.3799 40.2401C43.8571 40.0092 44.2597 39.6476 44.5414 39.1968C44.8232 38.7461 44.9726 38.2245 44.9725 37.6922V7.30706C44.9726 6.77473 44.8232 6.25317 44.5414 5.80242C44.2597 5.35167 43.8571 4.99003 43.3799 4.75913L34.1152 0.27851C33.5917 0.0253087 33.0028 -0.0580571 32.4301 0.0399502C31.8574 0.137958 31.3291 0.412491 30.9185 0.825556L13.1822 17.0906L5.45697 11.1961C5.10849 10.9301 4.67837 10.7952 4.24124 10.8147C3.80412 10.8342 3.38758 11.0069 3.06389 11.3028L0.586087 13.5684C0.393039 13.745 0.23877 13.9601 0.133143 14.2C0.0275156 14.4399 -0.0271447 14.6994 -0.0273432 14.9617C-0.0275417 15.2241 0.0267258 15.4836 0.13199 15.7237C0.237253 15.9637 0.391197 16.1791 0.583977 16.3559L7.28368 22.4996L0.584329 28.6436C0.3915 28.8205 0.237514 29.0358 0.132219 29.2759C0.0269238 29.516 -0.0273606 29.7755 -0.0271621 30.0379C-0.0269635 30.3002 0.0277136 30.5597 0.133372 30.7996C0.23903 31.0395 0.393342 31.2546 0.586438 31.4312L3.06424 33.6967C3.38789 33.9927 3.8044 34.1655 4.24153 34.1851C4.67865 34.2046 5.1088 34.0697 5.45732 33.8038L13.1829 27.9089L30.9192 44.174C31.1933 44.4501 31.5216 44.6659 31.8831 44.8076ZM33.7295 12.2308L20.2718 22.4996L33.7295 32.768V12.2308Z" fill="url(#paint0_linear_678_178)"/>
</g>
<defs>
<filter id="filter0_d_678_178" x="-1.65508" y="9.1844" width="48.2828" height="37.4426" filterUnits="userSpaceOnUse" color-interpolation-filters="sRGB">
<feFlood flood-opacity="0" result="BackgroundImageFix"/>
<feColorMatrix in="SourceAlpha" type="matrix" values="0 0 0 0 0 0 0 0 0 0 0 0 0 0 0 0 0 0 127 0" result="hardAlpha"/>
<feOffset/>
<feGaussianBlur stdDeviation="0.813867"/>
<feColorMatrix type="matrix" values="0 0 0 0 0 0 0 0 0 0 0 0 0 0 0 0 0 0 0.25 0"/>
<feBlend mode="overlay" in2="BackgroundImageFix" result="effect1_dropShadow_678_178"/>
<feBlend mode="normal" in="SourceGraphic" in2="effect1_dropShadow_678_178" result="shape"/>
</filter>
<filter id="filter1_d_678_178" x="29.3098" y="-1.62834" width="17.318" height="48.256" filterUnits="userSpaceOnUse" color-interpolation-filters="sRGB">
<feFlood flood-opacity="0" result="BackgroundImageFix"/>
<feColorMatrix in="SourceAlpha" type="matrix" values="0 0 0 0 0 0 0 0 0 0 0 0 0 0 0 0 0 0 127 0" result="hardAlpha"/>
<feOffset/>
<feGaussianBlur stdDeviation="0.813867"/>
<feColorMatrix type="matrix" values="0 0 0 0 0 0 0 0 0 0 0 0 0 0 0 0 0 0 0.25 0"/>
<feBlend mode="overlay" in2="BackgroundImageFix" result="effect1_dropShadow_678_178"/>
<feBlend mode="normal" in="SourceGraphic" in2="effect1_dropShadow_678_178" result="shape"/>
</filter>
<linearGradient id="paint0_linear_678_178" x1="22.4725" y1="-0.000667532" x2="22.4725" y2="44.9999" gradientUnits="userSpaceOnUse">
<stop stop-color="white"/>
<stop offset="1" stop-color="white" stop-opacity="0"/>
</linearGradient>
</defs>
</svg>
