<svg width="18" height="18" viewBox="0 0 18 18" fill="none" xmlns="http://www.w3.org/2000/svg">
<path d="M9 0C4.014 0 0 4.014 0 9C0 13.986 4.014 18 9 18C13.986 18 18 13.986 18 9C18 4.014 13.986 0 9 0ZM11.1 3.24975C11.1975 3.24675 11.286 3.35175 11.2282 3.45825L8.94525 7.64325C8.9337 7.66459 8.92789 7.68856 8.92838 7.71281C8.92886 7.73707 8.93563 7.76079 8.94803 7.78164C8.96042 7.8025 8.97801 7.81979 8.99908 7.83181C9.02016 7.84384 9.04399 7.85019 9.06825 7.85025H13.0132C13.1407 7.85025 13.2023 8.0055 13.1093 8.0925L6.19425 14.5463C6.0705 14.6618 5.88675 14.499 5.98575 14.3618L9.25875 9.846C9.27375 9.82509 9.28271 9.80046 9.28464 9.7748C9.28658 9.74914 9.28142 9.72344 9.26972 9.70052C9.25803 9.67759 9.24026 9.65833 9.21834 9.64483C9.19643 9.63134 9.17123 9.62413 9.1455 9.624H4.97025C4.94247 9.62393 4.91534 9.61562 4.89229 9.60011C4.86924 9.5846 4.85132 9.56259 4.84079 9.53689C4.83027 9.51118 4.82762 9.48292 4.83317 9.4557C4.83873 9.42848 4.85224 9.40353 4.872 9.384L11.007 3.29175C11.0316 3.26608 11.0645 3.25101 11.1 3.24975Z" fill="#64FFDA" fill-opacity="0.2784"/>
</svg>
