<svg width="47" height="47" viewBox="0 0 47 47" fill="none" xmlns="http://www.w3.org/2000/svg">
<path d="M5.03571 0C2.25558 0 0 2.25558 0 5.03571V41.9643C0 44.7444 2.25558 47 5.03571 47H41.9643C44.7444 47 47 44.7444 47 41.9643V5.03571C47 2.25558 44.7444 0 41.9643 0H5.03571ZM15.4093 13.9777C17.4693 13.9777 19.2996 14.6899 20.6474 15.7581C21.8937 16.7497 22.4774 17.7417 22.9867 18.6319L19.4278 20.4101C19.1732 19.8262 18.8668 19.2154 18.0801 18.555C17.2148 17.8677 16.3514 17.665 15.6122 17.665C12.7139 17.665 11.1881 20.3604 11.1881 23.3603C11.1881 27.3021 13.1983 29.2583 15.6122 29.2583C17.9517 29.2583 18.8936 27.6312 19.5023 26.5899L23.0384 28.3951C22.3759 29.4365 21.7402 30.4551 20.316 31.4448C19.5541 31.9788 17.8005 33.0223 15.3079 33.0223C10.5525 33.0223 6.71429 29.5649 6.71429 23.4864C6.71429 18.1741 10.3248 13.9777 15.4093 13.9777ZM23.3283 14.5366H28.1085L31.8205 27.302L35.5055 14.5366H40.2857L34.0562 32.4881H29.481L23.3283 14.5367V14.5366Z" fill="#64FFDA" fill-opacity="0.278431"/>
</svg>
