<svg width="38" height="38" viewBox="0 0 38 38" fill="none" xmlns="http://www.w3.org/2000/svg">
<path d="M19 37L1 11.8621L8.13793 1H29.8621L37 11.8621L19 37Z" stroke="#64FFDA"/>
<path d="M10.8999 20.5156V22.6512H17.6416V20.5156L16.9587 20.5096L16.6536 20.493L16.3485 20.4119L16.1006 20.2105L16.0434 20.1021V19.9054V15.0241H19.2278L19.3994 15.3292L19.5591 15.6342L19.7247 15.9393L19.888 16.2444L20.0095 16.4685L20.0524 16.5495L20.2157 16.8546L20.3146 17.0357L20.3802 17.1597L20.5434 17.4648L20.6197 17.6066L20.7079 17.7698L20.8688 18.0749L20.9248 18.1703L21.0368 18.38L21.1977 18.6851L21.2299 18.7411L21.3634 18.9902L21.5278 19.2953L21.6875 19.6003L21.8615 19.9054L22.0188 20.2105L22.1821 20.5156H20.7723V22.6512H27.1945V20.5156H26.4163L26.1112 20.5013L25.8062 20.4536L25.5011 20.3631L25.221 20.2105L25.196 20.1867L24.9219 19.9054L24.8909 19.8721L24.7157 19.6003L24.5548 19.2953L24.3916 18.9902L24.2807 18.7864L24.2283 18.6851L24.0603 18.38L23.9756 18.2275L23.8994 18.0749L23.7373 17.7698L23.6706 17.6507L23.5716 17.4648L23.4108 17.1597L23.3655 17.081L23.2427 16.8546L23.0783 16.5495L23.0604 16.5126L22.9162 16.2444L22.7482 15.9393L22.5885 15.6342L22.4228 15.3292L22.1451 14.769L22.4502 14.7035L22.7553 14.6308L23.0604 14.539L23.3655 14.4318L23.4143 14.4139L23.6706 14.3043L23.9756 14.1636L24.071 14.1088L24.2807 13.9908L24.5858 13.7894L24.8909 13.5618L24.9564 13.4987L25.196 13.2818L25.2854 13.1936L25.5011 12.9588L25.5559 12.8885L25.7823 12.5834L25.8062 12.5512L25.9754 12.2783L26.1112 12.0376L26.1434 11.9732L26.2817 11.6681L26.3961 11.3631L26.4163 11.3047L26.4914 11.058L26.5689 10.7529L26.6273 10.4478L26.6725 10.1427L26.7011 9.83764L26.7214 9.53255V9.22747L26.7154 8.92238L26.7 8.6173L26.669 8.31221L26.6213 8.00713L26.5617 7.70204L26.4819 7.39696L26.4163 7.19198L26.3853 7.09187L26.2638 6.78679L26.1232 6.4817L26.1112 6.46144L25.9444 6.17662L25.8062 5.96211L25.7382 5.87153L25.4868 5.56645L25.196 5.26971L24.8909 5.00276L24.8337 4.95628L24.5858 4.77752L24.3916 4.6512L24.2807 4.58327L23.9756 4.41523L23.835 4.34611L23.6706 4.27222L23.3655 4.15424L23.0604 4.05056L23.0401 4.04103L22.7553 3.96286L22.4502 3.88848L22.1451 3.83269L21.8401 3.78512L21.535 3.75133L21.2299 3.72379L20.9248 3.70001H11.4672H10.9091V4.95628V5.26137V5.56645V5.87154H11.7723L12.0773 5.89668L12.3824 5.9893L12.6227 6.17662L12.6875 6.2584L12.7854 6.48171L12.8401 6.78679V7.09188V7.39696V7.70204V8.00713V8.31221V8.6173V8.92238V9.22747V9.53255V9.83764V10.1427V10.4478V10.7529V11.058V11.3631V11.6681V11.9732V12.2783V12.5834V12.8885V13.1936V13.4987V13.8037V14.1088V14.4139V14.719V15.0241V15.3292V15.6342L12.8429 15.9393L12.8401 16.2444V16.5495V16.8546V17.1597V17.4648V17.7698V18.0749V18.38V18.6851V18.9902V19.2953V19.6003L12.7766 19.9054L12.6875 20.113L12.6176 20.2105L12.3824 20.3884L12.0773 20.4694L11.7723 20.5156H11.4672H10.8999Z" fill="#64FFDA"/>
<path d="M20.3572 12.8526H15.9898L15.9866 5.83563H20.3572L20.6623 5.8592L20.9673 5.88532L21.2724 5.92777L21.5775 5.98817L21.8826 6.08125L22.0351 6.14072L22.1877 6.19228L22.4928 6.35555L22.6453 6.4458L22.7979 6.57107L23.0107 6.75088L23.1029 6.87803L23.2327 7.05597L23.408 7.36106L23.5364 7.66614L23.6181 7.97122L23.6834 8.27631L23.7131 8.58139L23.7454 8.88648V9.19156V9.49665L23.7131 9.80173L23.6834 10.1068L23.6181 10.4119L23.5299 10.717L23.4254 11.0221L23.2555 11.3272L23.0695 11.6322L22.7979 11.9373L22.4928 12.1943L22.4458 12.2424L22.1877 12.395L21.8826 12.5475L21.5775 12.6515L21.2724 12.7429L20.9673 12.7919L20.6623 12.8278L20.3572 12.8526Z" fill="#0A192F"/>
</svg>
