<svg width="18" height="18" viewBox="0 0 18 18" fill="none" xmlns="http://www.w3.org/2000/svg">
<path d="M2.08008 0H3.16208V0.80175H4.15208V0H5.23408V2.427H4.15208V1.61475H3.16208V2.427H2.08108L2.08008 0ZM6.65608 0.80475H5.70408V0H8.69108V0.80475H7.73808V2.427H6.65608V0.80475ZM9.16508 0H10.2931L10.9871 0.85275L11.6801 0H12.8081V2.427H11.7311V1.224L10.9871 2.08725H10.9681L10.2231 1.22475V2.427H9.16508V0ZM13.3461 0H14.4291V1.62525H15.9491V2.42775H13.3461V0Z" fill="#64FFDA" fill-opacity="0.278431"/>
<path fill-rule="evenodd" clip-rule="evenodd" d="M2.046 16.554L0 3.53775H18L15.953 16.5525L8.99 18L2.046 16.554ZM6.183 9.429L5.989 7.794H14.134L14.324 6.198H3.664L4.238 11.0257H11.615L11.368 13.0957L8.994 13.5772H8.992L6.622 13.0972L6.47 11.8245H4.332L4.63 14.331L8.99 15.2385L13.357 14.331L13.889 9.858L13.941 9.42975H6.183V9.429Z" fill="#64FFDA" fill-opacity="0.278431"/>
</svg>
