<svg width="18" height="18" viewBox="0 0 18 18" fill="none" xmlns="http://www.w3.org/2000/svg">
<path fill-rule="evenodd" clip-rule="evenodd" d="M18 0H0V18H18V0ZM9.6 9.6C9.6 8.96348 9.85286 8.35303 10.3029 7.90294C10.753 7.45286 11.3635 7.2 12 7.2H13.4004C14.6148 7.2 15.6 8.184 15.6 9.3996V9.6H14.4V9.3996C14.4 9.26833 14.3741 9.13835 14.3239 9.01707C14.2737 8.89579 14.2 8.7856 14.1072 8.69278C14.0144 8.59995 13.9042 8.52632 13.7829 8.47609C13.6617 8.42586 13.5317 8.4 13.4004 8.4H12C11.6817 8.4 11.3765 8.52643 11.1515 8.75147C10.9264 8.97652 10.8 9.28174 10.8 9.6C10.8 9.91826 10.9264 10.2235 11.1515 10.4485C11.3765 10.6736 11.6817 10.8 12 10.8H13.2C13.8365 10.8 14.447 11.0529 14.8971 11.5029C15.3471 11.953 15.6 12.5635 15.6 13.2C15.6 13.8365 15.3471 14.447 14.8971 14.8971C14.447 15.3471 13.8365 15.6 13.2 15.6H12C11.3635 15.6 10.753 15.3471 10.3029 14.8971C9.85286 14.447 9.6 13.8365 9.6 13.2H10.8C10.8 13.5183 10.9264 13.8235 11.1515 14.0485C11.3765 14.2736 11.6817 14.4 12 14.4H13.2C13.5183 14.4 13.8235 14.2736 14.0485 14.0485C14.2736 13.8235 14.4 13.5183 14.4 13.2C14.4 12.8817 14.2736 12.5765 14.0485 12.3515C13.8235 12.1264 13.5183 12 13.2 12H12C11.3635 12 10.753 11.7471 10.3029 11.2971C9.85286 10.847 9.6 10.2365 9.6 9.6ZM7.2 7.2V13.2C7.2 13.5183 7.07357 13.8235 6.84853 14.0485C6.62348 14.2736 6.31826 14.4 6 14.4C5.68174 14.4 5.37652 14.2736 5.15147 14.0485C4.92643 13.8235 4.8 13.5183 4.8 13.2H3.6C3.6 13.8365 3.85286 14.447 4.30294 14.8971C4.75303 15.3471 5.36348 15.6 6 15.6C6.63652 15.6 7.24697 15.3471 7.69706 14.8971C8.14714 14.447 8.4 13.8365 8.4 13.2V7.2H7.2Z" fill="#64FFDA" fill-opacity="0.278431"/>
</svg>
