<svg width="47" height="47" viewBox="0 0 47 47" fill="none" xmlns="http://www.w3.org/2000/svg">
<path d="M41.7778 0C43.1628 0 44.4911 0.550197 45.4704 1.52955C46.4498 2.50891 47 3.8372 47 5.22222V41.7778C47 43.1628 46.4498 44.4911 45.4704 45.4704C44.4911 46.4498 43.1628 47 41.7778 47H5.22222C3.8372 47 2.50891 46.4498 1.52955 45.4704C0.550197 44.4911 0 43.1628 0 41.7778V5.22222C0 3.8372 0.550197 2.50891 1.52955 1.52955C2.50891 0.550197 3.8372 0 5.22222 0H41.7778ZM36.8297 40.4722C38.8414 40.4722 40.4722 38.8414 40.4722 36.8297V26.6333C40.4722 24.3758 39.5754 22.2106 37.979 20.6143C36.3827 19.0179 34.2176 18.1211 31.96 18.1211C30.428 18.1211 28.7219 18.768 27.3998 19.8385C26.8987 20.2442 25.9022 19.9013 25.9022 19.2566C25.9022 18.9035 25.616 18.6172 25.2628 18.6172H22.2597C20.248 18.6172 18.6172 20.248 18.6172 22.2597V36.8297C18.6172 38.8414 20.248 40.4722 22.2597 40.4722C24.2714 40.4722 25.9022 38.8414 25.9022 36.8297V27.5994C25.9022 25.5889 27.5211 23.9439 29.5317 23.9439C30.5012 23.9439 31.431 24.329 32.1165 25.0146C32.8021 25.7001 33.1872 26.6299 33.1872 27.5994V36.8297C33.1872 38.8414 34.818 40.4722 36.8297 40.4722ZM10.1311 14.5178C11.2945 14.5178 12.4103 14.0556 13.233 13.233C14.0556 12.4103 14.5178 11.2945 14.5178 10.1311C14.5178 7.70278 12.5594 5.71833 10.1311 5.71833C8.96077 5.71833 7.83836 6.18325 7.01081 7.01081C6.18325 7.83836 5.71833 8.96077 5.71833 10.1311C5.71833 12.5594 7.70278 14.5178 10.1311 14.5178ZM10.1442 40.4722C12.1414 40.4722 13.7606 38.8531 13.7606 36.8558V22.2336C13.7606 20.2363 12.1414 18.6172 10.1442 18.6172C8.14689 18.6172 6.52778 20.2363 6.52778 22.2336V36.8558C6.52778 38.8531 8.14689 40.4722 10.1442 40.4722Z" fill="#64FFDA" fill-opacity="0.278431"/>
</svg>
