<svg width="47" height="47" viewBox="0 0 47 47" fill="none" xmlns="http://www.w3.org/2000/svg">
<path d="M39.1667 5.875H7.83333C7.31395 5.875 6.81584 6.08132 6.44858 6.44858C6.08132 6.81584 5.875 7.31395 5.875 7.83333V39.1667C5.875 39.6861 6.08132 40.1842 6.44858 40.5514C6.81584 40.9187 7.31395 41.125 7.83333 41.125H39.1667C39.6861 41.125 40.1842 40.9187 40.5514 40.5514C40.9187 40.1842 41.125 39.6861 41.125 39.1667V7.83333C41.125 7.31395 40.9187 6.81584 40.5514 6.44858C40.1842 6.08132 39.6861 5.875 39.1667 5.875ZM16.3305 35.91H11.0979V19.0879H16.3305V35.91ZM13.7142 16.7908C12.9102 16.7908 12.1391 16.4714 11.5706 15.9028C11.0021 15.3343 10.6827 14.5633 10.6827 13.7593C10.6827 12.9552 11.0021 12.1842 11.5706 11.6157C12.1391 11.0471 12.9102 10.7278 13.7142 10.7278C14.5182 10.7278 15.2893 11.0471 15.8578 11.6157C16.4263 12.1842 16.7457 12.9552 16.7457 13.7593C16.7457 14.5633 16.4263 15.3343 15.8578 15.9028C15.2893 16.4714 14.5182 16.7908 13.7142 16.7908ZM35.9119 35.91H30.6851V27.73C30.6851 25.7795 30.6499 23.2709 27.967 23.2709C25.2449 23.2709 24.8317 25.3976 24.8317 27.5929V35.9119H19.6088V19.0898H24.6221V21.3889H24.6946C25.3898 20.067 27.0975 18.6727 29.6374 18.6727C34.9328 18.6727 35.91 22.1546 35.91 26.6862L35.9119 35.91Z" fill="white"/>
</svg>
