<svg width="20" height="20" viewBox="0 0 20 20" fill="none" xmlns="http://www.w3.org/2000/svg">
<path fill-rule="evenodd" clip-rule="evenodd" d="M2.87823e-07 9.99861C6.44155e-05 8.27323 0.446639 6.57722 1.2963 5.0755C2.14596 3.57378 3.3698 2.31745 4.84881 1.42867C6.32781 0.539893 8.01166 0.0489122 9.73662 0.00346934C11.4616 -0.0419735 13.1689 0.359668 14.6927 1.16934C16.2165 1.97901 17.5048 3.16916 18.4323 4.62406C19.3599 6.07897 19.8952 7.74911 19.9861 9.47209C20.077 11.1951 19.7205 12.9123 18.9512 14.4567C18.182 16.0011 17.0261 17.3202 15.596 18.2858L6.54267 5.61239C6.46064 5.49745 6.34422 5.41152 6.2102 5.367C6.07618 5.32248 5.93148 5.32166 5.79697 5.36466C5.66245 5.40767 5.54507 5.49227 5.46175 5.60628C5.37842 5.72029 5.33345 5.85781 5.33333 5.99902V15.998H6.66667V8.07881L14.44 18.9604C12.9152 19.7159 11.2228 20.0698 9.52302 19.9886C7.82323 19.9075 6.17227 19.3939 4.72641 18.4966C3.28055 17.5992 2.08762 16.3478 1.26054 14.8608C0.433461 13.3737 -0.00040795 11.7002 2.87823e-07 9.99861ZM13.3333 13.3316V5.33242H14.6667V13.3316H13.3333Z" fill="#64FFDA" fill-opacity="0.28"/>
</svg>
