<svg width="42" height="42" viewBox="0 0 42 42" fill="none" xmlns="http://www.w3.org/2000/svg">
<path d="M21 41L1 13.069L8.93103 1H33.069L41 13.069L21 41Z" stroke="#64FFDA"/>
<path d="M12 22.684V25.0569H19.4907V22.684L18.732 22.6774L18.393 22.6588L18.054 22.5688L17.7786 22.345L17.715 22.2245V22.006V16.5823H21.2532L21.4439 16.9213L21.6213 17.2603L21.8053 17.5992L21.9868 17.9382L22.1218 18.1872L22.1695 18.2772L22.3509 18.6162L22.4608 18.8175L22.5336 18.9552L22.715 19.2942L22.7998 19.4517L22.8978 19.6331L23.0765 19.9721L23.1388 20.0781L23.2632 20.3111L23.442 20.6501L23.4778 20.7123L23.6261 20.9891L23.8088 21.3281L23.9862 21.667L24.1796 22.006L24.3543 22.345L24.5358 22.684H22.9693V25.0569H30.1051V22.684H29.2405L28.9015 22.6681L28.5625 22.6151L28.2235 22.5145L27.9123 22.345L27.8845 22.3185L27.58 22.006L27.5456 21.9689L27.3509 21.667L27.1721 21.3281L26.9907 20.9891L26.8676 20.7626L26.8093 20.6501L26.6226 20.3111L26.5286 20.1416L26.4439 19.9721L26.2638 19.6331L26.1896 19.5007L26.0797 19.2942L25.901 18.9552L25.8506 18.8678L25.7142 18.6162L25.5315 18.2772L25.5117 18.2362L25.3514 17.9382L25.1647 17.5992L24.9873 17.2603L24.8032 16.9213L24.4947 16.2989L24.8337 16.2261L25.1727 16.1453L25.5117 16.0434L25.8506 15.9242L25.9049 15.9043L26.1896 15.7825L26.5286 15.6263L26.6345 15.5653L26.8676 15.4343L27.2066 15.2105L27.5456 14.9576L27.6184 14.8874L27.8845 14.6464L27.9838 14.5484L28.2235 14.2875L28.2844 14.2094L28.536 13.8704L28.5625 13.8347L28.7505 13.5314L28.9015 13.264L28.9372 13.1925L29.0908 12.8535L29.218 12.5145L29.2405 12.4496L29.3239 12.1755L29.41 11.8365L29.4748 11.4975L29.5252 11.1586L29.5569 10.8196L29.5794 10.4806V10.1416L29.5728 9.80263L29.5556 9.46365L29.5212 9.12467L29.4682 8.78568L29.402 8.4467L29.3133 8.10772L29.2405 7.87996L29.206 7.76873L29.071 7.42975L28.9147 7.09077L28.9015 7.06826L28.7161 6.75179L28.5625 6.51344L28.487 6.4128L28.2076 6.07382L27.8845 5.74411L27.5456 5.4475L27.482 5.39585L27.2066 5.19723L26.9907 5.05687L26.8676 4.98139L26.5286 4.79469L26.3724 4.71789L26.1896 4.63579L25.8506 4.5047L25.5117 4.3895L25.4891 4.3789L25.1727 4.29205L24.8337 4.20941L24.4947 4.14741L24.1557 4.09457L23.8167 4.05702L23.4778 4.02642L23.1388 4H12.6303H12.0103V5.39586V5.73484V6.07382V6.41281H12.9693L13.3083 6.44074L13.6472 6.54365L13.9142 6.75179L13.9862 6.84266L14.095 7.09077L14.1557 7.42975V7.76874V8.10772V8.4467V8.78569V9.12467V9.46365V9.80264V10.1416V10.4806V10.8196V11.1586V11.4976V11.8365V12.1755V12.5145V12.8535V13.1925V13.5314V13.8704V14.2094V14.5484V14.8874V15.2264V15.5653V15.9043V16.2433V16.5823V16.9213V17.2603L14.1589 17.5992L14.1557 17.9382V18.2772V18.6162V18.9552V19.2942V19.6331V19.9721V20.3111V20.6501V20.9891V21.3281V21.667L14.0852 22.006L13.9862 22.2367L13.9085 22.345L13.6472 22.5427L13.3083 22.6326L12.9693 22.684H12.6303H12Z" fill="#64FFDA"/>
<path d="M22.5081 14.1695H17.6555L17.6519 6.37289H22.5081L22.8471 6.39908L23.186 6.42811L23.525 6.47527L23.864 6.54238L24.203 6.6458L24.3725 6.71188L24.542 6.76917L24.881 6.95058L25.0505 7.05086L25.2199 7.19005L25.4564 7.38984L25.5589 7.53112L25.7032 7.72883L25.8979 8.06781L26.0406 8.40679L26.1313 8.74577L26.2039 9.08476L26.2369 9.42374L26.2728 9.76272V10.1017V10.4407L26.2369 10.7797L26.2039 11.1187L26.1313 11.4576L26.0333 11.7966L25.9172 12.1356L25.7284 12.4746L25.5217 12.8136L25.2199 13.1526L24.881 13.4381L24.8287 13.4915L24.542 13.661L24.203 13.8305L23.864 13.946L23.525 14.0476L23.186 14.102L22.8471 14.142L22.5081 14.1695Z" fill="#0A192F"/>
</svg>
