<svg width="20" height="20" viewBox="0 0 20 20" fill="none" xmlns="http://www.w3.org/2000/svg">
<path d="M16.444 6.4824C16.2311 6.40033 16.0165 6.32429 15.8002 6.25436C15.8366 6.08753 15.87 5.92271 15.8997 5.76079C16.387 3.10184 16.0684 0.959738 14.9802 0.254455C13.9369 -0.421675 12.2305 0.283345 10.5073 1.96902C10.3374 2.13544 10.1714 2.30667 10.0092 2.48252C9.90067 2.36558 9.79021 2.25092 9.67789 2.13858C7.8718 0.336206 6.06148 -0.423431 4.97445 0.283872C3.93203 0.962109 3.62336 2.97584 4.06211 5.49578C4.10576 5.74536 4.15505 5.99364 4.20992 6.2404C3.95367 6.32224 3.70641 6.40935 3.46977 6.50207C1.35227 7.33187 0 8.63223 0 9.98107C0 11.3742 1.45172 12.7715 3.65719 13.6187C3.83599 13.6871 4.01628 13.7505 4.19789 13.8088C4.13891 14.0746 4.08654 14.3422 4.04086 14.6112C3.62258 17.0875 3.94922 19.0536 4.98883 19.7275C6.06258 20.4235 7.86477 19.7082 9.61953 17.9841C9.76182 17.8439 9.90098 17.6998 10.0369 17.5518C10.2125 17.7422 10.3927 17.9271 10.5775 18.1062C12.2773 19.7502 13.9561 20.414 14.9947 19.7382C16.0674 19.0402 16.4161 16.9281 15.9634 14.3584C15.9278 14.157 15.8878 13.9567 15.8435 13.7576C15.9701 13.7154 16.0943 13.672 16.2154 13.6269C18.5082 12.7731 20 11.3928 20 9.98107C20 8.62732 18.6041 7.31817 16.444 6.4824ZM15.9467 12.7154C15.8373 12.7561 15.7252 12.7954 15.6108 12.8335C15.3577 11.9329 15.0161 10.9752 14.598 9.98572C14.997 9.01982 15.3254 8.07438 15.5714 7.17961C15.776 7.24617 15.9745 7.31633 16.1659 7.39035C18.0167 8.10652 19.1456 9.16524 19.1456 9.98107C19.1456 10.85 17.9264 11.9781 15.9467 12.7154ZM15.1253 14.5449C15.3255 15.6811 15.354 16.7085 15.2214 17.5117C15.1023 18.2334 14.8628 18.7145 14.5666 18.9072C13.9363 19.3173 12.5884 18.7843 11.1348 17.3783C10.9629 17.2117 10.7952 17.0399 10.6319 16.8628C11.1955 16.1701 11.7587 15.3648 12.3084 14.4704C13.2752 14.374 14.1887 14.2163 15.017 14.0011C15.0569 14.1813 15.093 14.3627 15.1253 14.5449ZM6.81844 18.8364C6.20266 19.0807 5.71219 19.0878 5.4157 18.8956C4.78484 18.4867 4.52258 16.908 4.88031 14.7904C4.92284 14.5401 4.97153 14.2913 5.02633 14.0441C5.84555 14.2478 6.75234 14.3943 7.72148 14.4826C8.27492 15.3578 8.85437 16.1622 9.43836 16.8666C9.31425 17.0016 9.18721 17.1331 9.05734 17.2611C8.28133 18.0234 7.50375 18.5643 6.81844 18.8364ZM3.93359 12.7101C2.95836 12.3354 2.15297 11.8485 1.60094 11.3172C1.10484 10.8398 0.854453 10.3657 0.854453 9.98107C0.854453 9.16251 1.94016 8.11846 3.75102 7.40888C3.97078 7.32282 4.20078 7.2416 4.43945 7.16538C4.68977 8.08035 5.01805 9.03703 5.41422 10.0044C5.01289 10.9861 4.67992 11.9581 4.42719 12.8839C4.26141 12.8305 4.09683 12.7725 3.93359 12.7101ZM4.90063 5.31129C4.52477 3.15233 4.77437 1.52374 5.40258 1.11498C6.07164 0.679627 7.55117 1.30035 9.11062 2.85668C9.21231 2.95839 9.31236 3.06217 9.4107 3.16796C8.82961 3.86929 8.25547 4.66774 7.70695 5.53775C6.76633 5.63575 5.86594 5.7931 5.03812 6.00393C4.98712 5.77442 4.94127 5.54341 4.90063 5.31129ZM13.5277 7.70567C13.3322 7.32607 13.1294 6.95124 12.9195 6.58145C13.5577 6.67216 14.1691 6.79255 14.7432 6.93971C14.5709 7.5607 14.356 8.20987 14.1031 8.87547C13.9183 8.48127 13.7264 8.09126 13.5277 7.70567ZM10.0096 3.85428C10.4037 4.33415 10.7984 4.86988 11.1866 5.45117C10.3991 5.40937 9.61025 5.4092 8.82273 5.45065C9.21133 4.87471 9.60938 4.33969 10.0096 3.85428ZM6.46891 7.71226C6.27268 8.09474 6.08443 8.48232 5.9043 8.87467C5.65555 8.21145 5.44266 7.55929 5.26883 6.92953C5.83945 6.78605 6.44797 6.66873 7.08203 6.5797C6.8698 6.95174 6.66537 7.32943 6.46891 7.71226ZM7.10023 13.4508C6.44516 13.3686 5.8275 13.2573 5.25703 13.1177C5.43359 12.4767 5.65117 11.8107 5.90531 11.1332C6.08616 11.5259 6.2752 11.9137 6.47227 12.2963C6.67492 12.6897 6.88477 13.075 7.10023 13.4508ZM10.0332 16.1755C9.6282 15.6844 9.2243 15.1412 8.82984 14.5569C9.21281 14.5738 9.6032 14.5824 10 14.5824C10.4077 14.5824 10.8106 14.5721 11.2073 14.5522C10.8178 15.1471 10.4246 15.6911 10.0332 16.1755ZM14.1112 11.0986C14.3785 11.7835 14.6038 12.446 14.7827 13.0761C14.2029 13.2248 13.5768 13.3446 12.9171 13.4335C13.1285 13.0569 13.3332 12.6756 13.5311 12.2897C13.7323 11.8976 13.9257 11.5004 14.1112 11.0986ZM12.791 11.81C12.4881 12.4015 12.1681 12.9818 11.8316 13.5499C11.222 13.5984 10.6111 13.6225 10 13.6222C9.37758 13.6222 8.77219 13.6004 8.18922 13.5579C7.84392 12.9911 7.51783 12.4098 7.21164 11.8152C6.90689 11.2238 6.62231 10.6197 6.35836 10.004C6.62164 9.38817 6.90543 8.78371 7.20914 8.19187L7.20906 8.19196C7.51266 7.59997 7.83614 7.02115 8.17883 6.45676C8.77359 6.40619 9.38352 6.37984 9.99992 6.37984C10.6191 6.37984 11.2299 6.40645 11.8245 6.45738C12.1638 7.02092 12.4852 7.59775 12.7882 8.18678C13.0929 8.77731 13.3805 9.37883 13.6504 9.99038C13.3832 10.6082 13.0966 11.2151 12.791 11.81ZM14.5535 1.08636C15.2232 1.52049 15.4837 3.27114 15.0629 5.56691C15.036 5.71337 15.0059 5.86256 14.973 6.01385C14.1432 5.79855 13.2422 5.63847 12.2988 5.53898C11.7493 4.6594 11.1798 3.85972 10.6082 3.16743C10.758 3.00512 10.9114 2.84702 11.0682 2.69327C12.5448 1.24907 13.9248 0.678837 14.5535 1.08636ZM10 7.97375C10.9863 7.97375 11.7859 8.87248 11.7859 9.98107C11.7859 11.0897 10.9863 11.9884 10 11.9884C9.01367 11.9884 8.21406 11.0897 8.21406 9.98107C8.21406 8.87248 9.01367 7.97375 10 7.97375Z" fill="#64FFDA" fill-opacity="0.28"/>
</svg>
