<svg width="18" height="18" viewBox="0 0 18 18" fill="none" xmlns="http://www.w3.org/2000/svg">
<path d="M12.472 12.5713C11.2063 15.2967 8.99 17.1305 6.0579 17.7334C5.60832 17.8494 5.14681 17.9061 4.68395 17.9022C2.99641 17.9022 1.44949 17.1616 0.698538 15.9485C-0.30977 14.3325 -0.652903 10.9064 2.67156 8.37195C2.73906 8.75856 2.87688 9.28884 2.96828 9.60286C2.31567 10.1135 1.78149 10.7734 1.4059 11.5329C0.787134 12.8127 0.856042 14.091 1.58872 15.273C2.09498 16.0699 2.89656 16.5543 3.92737 16.7024C5.21488 16.8741 6.52103 16.615 7.66106 15.9618C9.44845 14.9723 10.6396 13.7903 11.4187 12.1743C11.1984 11.9345 11.068 11.6188 11.0516 11.2855C11.0398 10.928 11.1632 10.5801 11.3947 10.3182C11.6262 10.0563 11.9469 9.90187 12.2863 9.88874H12.3342C12.6643 9.887 12.9825 10.019 13.2229 10.2575C13.4632 10.496 13.6074 10.8226 13.6254 11.1699C13.6435 11.5172 13.5341 11.8585 13.3199 12.1232C13.1058 12.3879 12.8032 12.5557 12.4748 12.592L12.472 12.5713ZM16.5038 9.57916C18.2209 11.6292 18.2673 14.0421 17.6035 15.4419C16.9847 16.7202 15.3535 18 13.1596 18C12.1355 17.978 11.1281 17.7228 10.2064 17.252C10.5285 17.0105 10.9855 16.6239 11.2372 16.3825C11.948 16.7068 12.7128 16.879 13.4873 16.8891C14.9077 16.8891 15.9835 16.1899 16.6247 14.9116C17.0368 14.0673 17.0607 13.0778 16.6711 12.0647C16.1932 10.7899 15.3426 9.70831 14.2425 8.9763C12.7992 7.9515 11.0977 7.40518 9.35704 7.40767H8.945C8.84892 7.64145 8.69261 7.84222 8.49378 7.98725C8.29495 8.13228 8.06153 8.21577 7.81997 8.22827H7.77638C7.44227 8.22395 7.12292 8.0826 6.88616 7.83426C6.6494 7.58591 6.51388 7.25013 6.50839 6.89823C6.5029 6.54634 6.62787 6.20605 6.85675 5.94964C7.08563 5.69323 7.40039 5.54091 7.73419 5.52502H7.7806C8.01321 5.5252 8.24127 5.5929 8.43974 5.72068C8.6382 5.84846 8.7994 6.03137 8.90563 6.24934H9.27267C12.1977 6.24934 14.7656 7.43137 16.5038 9.57916ZM4.86677 12.986C4.84269 12.74 4.89926 12.4928 5.02709 12.2854C3.74455 9.94503 3.05829 6.97811 4.1116 3.88973C4.86677 1.56863 6.76807 0 8.82969 0C11.0291 0 13.32 2.02781 13.5942 5.93532C13.2511 5.81534 12.7504 5.63907 12.4495 5.5739C12.3749 4.29559 11.3498 1.11093 8.92109 1.15833C8.0506 1.18351 6.76807 1.61751 6.10852 2.50922C5.29268 3.57366 4.81808 4.88305 4.75286 6.24934C4.59827 8.12277 5.01557 9.99926 5.94399 11.6055C5.99524 11.5858 6.04988 11.5777 6.1043 11.5818H6.1493C6.48945 11.5753 6.81812 11.7114 7.06299 11.9602C7.30786 12.2089 7.44889 12.55 7.45504 12.9082C7.4612 13.2665 7.33197 13.6127 7.0958 13.8706C6.85963 14.1286 6.53586 14.2771 6.19571 14.2836H6.1493C5.81746 14.2823 5.49888 14.1463 5.25995 13.9037C5.02102 13.6611 4.88017 13.3308 4.86677 12.9816V12.986Z" fill="#64FFDA" fill-opacity="0.2784"/>
</svg>
