<svg width="18" height="18" viewBox="0 0 18 18" fill="none" xmlns="http://www.w3.org/2000/svg">
<path fill-rule="evenodd" clip-rule="evenodd" d="M0 7.50578C0 7.64054 0.0296765 7.72948 0.0463068 7.81594C0.15469 8.37816 0.387658 8.86064 0.664065 9.30076C1.05774 9.92797 1.53988 10.4329 2.03377 10.9077C2.46214 11.3194 2.89926 11.722 3.32936 12.1307C3.40319 12.2008 3.47301 12.2815 3.55315 12.3676C3.48419 12.4174 3.42684 12.4613 3.3672 12.5018C2.79962 12.8867 2.25355 13.3182 1.7502 13.8409C1.44684 14.1561 1.15351 14.4909 0.94635 14.9286C0.613027 15.6324 0.495038 16.3823 0.743489 17.183C0.816031 17.4169 0.926709 17.6189 1.08283 17.7682C1.13344 17.8166 1.19021 17.8645 1.24942 17.8833C1.4011 17.931 1.55565 17.9622 1.70919 18L2.14402 17.9996C2.62486 17.9423 3.06255 17.7221 3.4581 17.3571C4.07629 16.7866 4.49276 16.0218 4.67182 15.0401C4.802 14.3267 4.8073 13.6124 4.6539 12.9022C4.63922 12.8364 4.62228 12.7716 4.60315 12.7078C4.58451 12.644 4.56258 12.5819 4.53677 12.5024L5.52255 11.7444L5.53731 11.7613C5.51939 11.8397 5.50033 11.9179 5.48413 11.9971C5.367 12.5691 5.28915 13.151 5.31711 13.7447C5.34693 14.3773 5.47896 14.9694 5.75595 15.4979C5.97988 15.9253 6.51348 15.9413 6.75147 15.5123C6.83591 15.3599 6.91777 15.2006 6.97928 15.0305C7.13999 14.5868 7.2888 14.1352 7.44234 13.6866L7.46915 13.6046C7.45811 13.817 7.44521 14.0035 7.43933 14.1902C7.43016 14.4817 7.44292 14.7716 7.51747 15.0489C7.58126 15.2863 7.68979 15.4636 7.89308 15.4948C8.03215 15.5161 8.14297 15.431 8.24518 15.3231C8.40354 15.1557 8.5348 14.9471 8.63098 14.7098C8.90352 14.0407 9.18336 13.3755 9.43038 12.6894C9.69761 11.9474 9.9313 11.1837 10.1795 10.429L10.2205 10.2952C10.2791 10.6033 10.32 10.905 10.3952 11.1906C10.4827 11.5221 10.5909 11.8456 10.7088 12.1602C10.7645 12.3087 10.7581 12.4052 10.6808 12.5298C10.3574 13.0512 10.0395 13.5789 9.72141 14.106C9.65102 14.2224 9.58091 14.3408 9.52228 14.4679C9.4867 14.5482 9.46332 14.637 9.45346 14.7294C9.4436 14.8144 9.45873 14.9013 9.49569 14.9717C9.53266 15.0421 9.58858 15.0907 9.65174 15.1072C9.7792 15.1439 9.9099 15.1564 10.04 15.1442C10.484 15.1005 10.8871 14.8921 11.2435 14.5391C11.7053 14.0817 11.8535 13.4575 11.7417 12.7178C11.7115 12.5171 11.658 12.322 11.6059 12.1286C11.5826 12.0413 11.581 11.9802 11.6236 11.8989C11.9927 11.1941 12.3081 10.4463 12.6015 9.68126C12.6131 9.65117 12.625 9.62107 12.6453 9.58887C12.7404 10.2502 12.8835 10.8876 13.1398 11.4659C13.009 11.6344 12.8796 11.7872 12.7625 11.9555C12.5045 12.3262 12.2809 12.7287 12.1642 13.2197C12.114 13.4313 12.0755 13.6464 12.0978 13.8724C12.1325 14.2233 12.3476 14.4514 12.6058 14.3715C13.1583 14.2005 13.6353 13.8524 13.9838 13.2358C14.2183 12.8206 14.2397 12.3574 14.1415 11.8723C14.1145 11.7404 14.0826 11.6106 14.0482 11.4594C14.1845 11.4028 14.3174 11.335 14.4549 11.293C15.1687 11.0752 15.8748 11.1132 16.5626 11.4578C16.9642 11.6591 17.2886 11.9959 17.481 12.5257C17.716 13.1735 17.5861 13.788 17.1295 14.1975C17.0869 14.2356 17.0382 14.2657 17.0029 14.3134C16.9916 14.3309 16.9832 14.3514 16.9781 14.3735C16.973 14.3956 16.9715 14.4189 16.9735 14.4419C16.9765 14.4654 17.0231 14.495 17.0499 14.4946C17.2 14.493 17.3217 14.3878 17.4386 14.2797C17.7313 14.0088 17.9449 13.6444 17.991 13.1646L18 13.1286L17.989 12.8161C17.9845 12.7981 17.9923 12.7803 17.9913 12.7667C17.929 12.068 17.6499 11.5261 17.2439 11.1013C16.7737 10.6096 16.2184 10.4072 15.6312 10.3752C15.1549 10.3478 14.6793 10.4457 14.2312 10.6633C14.1026 10.7256 13.9752 10.7994 13.8459 10.869C13.8285 10.827 13.8099 10.7867 13.7945 10.7451C13.6618 10.3817 13.5009 10.0344 13.4654 9.61762C13.4401 9.32165 13.4092 9.02607 13.4618 8.73336C13.5124 8.45177 13.5783 8.17497 13.6404 7.89721C13.6724 7.75421 13.6499 7.67409 13.5478 7.60968C13.5122 7.58596 13.4743 7.5693 13.4351 7.56022C13.1842 7.51153 12.9368 7.53933 12.6938 7.63383C12.6078 7.66738 12.5453 7.73178 12.5262 7.85907C12.5153 7.9321 12.4931 8.00207 12.4776 8.07414C12.4141 8.37375 12.3691 8.67911 12.2664 8.96454C12.0092 9.6805 11.7156 10.3694 11.4151 11.0534C11.3826 11.1272 11.3483 11.1996 11.3073 11.2892C11.2018 10.994 11.0893 10.729 11.0551 10.4185C11.0166 10.0673 10.9862 9.71673 11.0515 9.36824C11.1001 9.1083 11.1637 8.85317 11.2222 8.59669C11.2498 8.47477 11.2371 8.41075 11.1545 8.34653C11.1128 8.31414 11.0656 8.28538 11.0186 8.27599C10.7613 8.2236 10.4985 8.25235 10.251 8.35995C10.1732 8.39369 10.1323 8.46097 10.1085 8.56832C10.0385 8.88499 9.97889 9.20932 9.88069 9.51047C9.483 10.7296 9.07383 11.9424 8.6651 13.1551C8.5798 13.4083 8.47987 13.6527 8.38368 13.8992C8.3593 13.9617 8.32375 14.0167 8.29336 14.0754C8.26898 14.0368 8.25952 14.0104 8.25967 13.9839C8.26038 13.8281 8.24648 13.6676 8.2687 13.517C8.33693 13.0613 8.41236 12.6076 8.49493 12.1562C8.56231 11.7831 8.64073 11.4136 8.71542 11.043C8.74051 10.919 8.74094 10.803 8.67428 10.6988C8.56231 10.5241 8.32834 10.4858 8.18956 10.6203L8.1282 10.6667L8.1401 10.5345C8.16935 10.251 8.17522 9.96841 8.11702 9.68912C8.04447 9.34101 7.85867 9.1407 7.58858 9.15182C7.4627 9.15699 7.33052 9.18575 7.21396 9.24709C6.7238 9.50395 6.34689 9.95883 6.02604 10.5061C5.9963 10.5569 5.95944 10.5995 5.91752 10.6315C5.50276 10.9389 5.08672 11.2426 4.67082 11.5474L4.20789 11.8865C4.08374 11.7281 3.97091 11.5638 3.84289 11.4245C3.45193 10.9982 3.05467 10.5824 2.66099 10.1609C2.31204 9.78727 1.97399 9.39814 1.71536 8.90339C1.52296 8.53535 1.39895 8.13261 1.38705 7.67754C1.372 7.09768 1.49501 6.56785 1.71579 6.07463C1.99822 5.44359 2.38344 4.93715 2.80694 4.47843C3.25495 3.99346 3.73952 3.58171 4.24173 3.20581C4.94436 2.68001 5.66706 2.21459 6.44195 1.90731C7.23647 1.59217 8.04261 1.41179 8.87413 1.53754C9.201 1.58699 9.51841 1.68706 9.80987 1.90079C10.0331 2.0643 10.2162 2.27842 10.3013 2.61311C10.3853 2.94243 10.3828 3.27616 10.3245 3.61066C10.2063 4.28809 9.92886 4.84648 9.57977 5.34545C9.00717 6.16338 8.3087 6.72024 7.52234 7.08809C7.07021 7.29987 6.5998 7.43404 6.12239 7.48738C5.73114 7.53128 5.34807 7.48489 4.97762 7.30298C4.73232 7.1824 4.51871 6.998 4.34696 6.7304C4.31628 6.68248 4.277 6.63053 4.21979 6.67539C4.16374 6.71947 4.15385 6.79078 4.17263 6.86305C4.20402 6.98305 4.23298 7.10803 4.28187 7.21537C4.40473 7.4847 4.58394 7.68003 4.78121 7.84756C5.16012 8.16979 5.58362 8.2781 6.02275 8.30321C6.68911 8.34174 7.33926 8.20871 7.98025 7.96967C8.89534 7.62846 9.69102 7.02579 10.3291 6.07501C10.8604 5.28334 11.2399 4.38987 11.3212 3.31105C11.3609 2.78448 11.3186 2.26864 11.1343 1.78827C10.9343 1.26783 10.6163 0.880812 10.2361 0.614172C9.68241 0.226002 9.08487 0 8.46812 0H7.85022C7.10329 0 6.38116 0.286192 5.67925 0.62759C5.14794 0.886179 4.62695 1.19135 4.12116 1.5291C3.01969 2.265 1.99391 3.15233 1.15136 4.37243C0.73159 4.98028 0.376189 5.651 0.171751 6.44076C0.110047 6.67655 0.0568929 6.91618 0.0124727 7.15883M4.0036 14.0621C3.95586 14.9169 3.66612 15.6098 3.19259 16.1711C2.92622 16.4866 2.62071 16.7113 2.26487 16.7903C2.13585 16.8188 2.00381 16.8257 1.87865 16.7542C1.70016 16.6522 1.66016 16.4404 1.65672 16.2148C1.65142 15.8552 1.74561 15.5301 1.87478 15.2207C2.04338 14.8174 2.29054 14.5099 2.55447 14.2228C2.97023 13.7702 3.42125 13.3872 3.88317 13.0257L3.91801 13.0065C3.98941 13.3592 4.02338 13.7075 4.0036 14.0621ZM7.61037 10.3474C7.57668 10.6203 7.53453 10.8935 7.47489 11.158C7.26873 12.0737 7.00393 12.9611 6.71764 13.8365C6.66473 13.9985 6.58775 14.1463 6.5208 14.2998C6.50941 14.3234 6.49577 14.3449 6.48022 14.3638C6.39736 14.4733 6.31879 14.4676 6.27693 14.3244C6.22819 14.158 6.19823 13.9799 6.17242 13.8037C6.15507 13.6855 6.15923 13.5612 6.15378 13.4401C6.15937 12.5786 6.35593 11.7958 6.68939 11.067C6.82688 10.7664 6.97655 10.48 7.20522 10.2899C7.27635 10.2307 7.35332 10.1852 7.43388 10.1545C7.55574 10.1087 7.63058 10.1841 7.61037 10.3474ZM10.0711 14.5392L10.9555 13.1585C10.9923 13.6713 10.3405 14.6949 10.0711 14.5392ZM12.8958 13.6101C12.8333 13.658 12.7652 13.6926 12.7011 13.7368C12.6425 13.7775 12.6231 13.7364 12.6214 13.669C12.6205 13.6223 12.625 13.5757 12.6347 13.5308C12.7541 12.9676 12.9739 12.4868 13.3009 12.0958L13.3239 12.0801C13.4794 12.6618 13.2996 13.3007 12.8958 13.6101Z" fill="#64FFDA" fill-opacity="0.278431"/>
</svg>
