<svg width="35" height="35" viewBox="0 0 35 35" fill="none" xmlns="http://www.w3.org/2000/svg">
<path d="M17.5 18.3385C17.3056 18.3385 17.1233 18.3084 16.9532 18.2481C16.783 18.1878 16.625 18.0843 16.4792 17.9375L9.77088 11.2292C9.50352 10.9618 9.36352 10.6274 9.35088 10.2258C9.33824 9.8243 9.47824 9.47819 9.77088 9.1875C10.0382 8.92014 10.3785 8.78646 10.7917 8.78646C11.2049 8.78646 11.5452 8.92014 11.8125 9.1875L17.5 14.8385L23.1875 9.1875C23.4549 8.92014 23.7894 8.78062 24.1909 8.76896C24.5924 8.75729 24.9385 8.8968 25.2292 9.1875C25.4966 9.45486 25.6303 9.79514 25.6303 10.2083C25.6303 10.6215 25.4966 10.9618 25.2292 11.2292L18.5209 17.9375C18.375 18.0833 18.2171 18.1869 18.0469 18.2481C17.8768 18.3094 17.6945 18.3395 17.5 18.3385ZM17.5 27.0885C17.3056 27.0885 17.1233 27.0584 16.9532 26.9981C16.783 26.9378 16.625 26.8343 16.4792 26.6875L9.77088 19.9792C9.50352 19.7118 9.36352 19.3778 9.35088 18.9773C9.33824 18.5767 9.47824 18.2301 9.77088 17.9375C10.0382 17.6701 10.3785 17.5365 10.7917 17.5365C11.2049 17.5365 11.5452 17.6701 11.8125 17.9375L17.5 23.5885L23.1875 17.9375C23.4549 17.6701 23.7894 17.5301 24.1909 17.5175C24.5924 17.5049 24.9385 17.6449 25.2292 17.9375C25.4966 18.2049 25.6303 18.5451 25.6303 18.9583C25.6303 19.3715 25.4966 19.7118 25.2292 19.9792L18.5209 26.6875C18.375 26.8333 18.2171 26.9369 18.0469 26.9981C17.8768 27.0594 17.6945 27.0895 17.5 27.0885Z" fill="#FFBE1A"/>
</svg>
