<svg width="25" height="20" viewBox="0 0 25 20" fill="none" xmlns="http://www.w3.org/2000/svg">
<path d="M12.5 0C9.1666 0 7.08398 2.22147 6.25 6.66623C7.49961 4.4445 8.9584 3.61139 10.6246 4.16688C11.576 4.48305 12.2559 5.40289 13.0088 6.42221C14.2342 8.08037 15.6525 10 18.75 10C22.0832 10 24.166 7.77827 25 3.33246C23.7502 5.5555 22.2916 6.38861 20.6252 5.83312C19.674 5.51669 18.9949 4.59711 18.241 3.57779C17.0164 1.91963 15.5984 0 12.5 0ZM6.25 10C2.9168 10 0.833984 12.2217 0 16.6675C1.24961 14.4445 2.7082 13.6114 4.37461 14.1669C5.32598 14.4833 6.00586 15.4029 6.75879 16.4222C7.98418 18.0804 9.40254 20 12.5 20C15.8332 20 17.916 17.7785 18.75 13.3338C17.5002 15.5555 16.0416 16.3886 14.3752 15.8331C13.424 15.517 12.7449 14.5971 11.991 13.5778C10.7664 11.9196 9.34844 10 6.25 10Z" fill="#64FFDA" fill-opacity="0.28"/>
</svg>
